<svg width="24" height="24" fill="none" xmlns="http://www.w3.org/2000/svg"><path d="M19.861 4.209q.246.054.482.153.236.1.446.24.23.15.428.35.199.198.35.428.14.21.24.445.099.236.153.482.055.255.062.52a.747.747 0 010 .136v9.933q0 .301-.062.589-.054.246-.154.482-.1.235-.238.445-.152.23-.351.428-.199.2-.428.35-.21.14-.446.24-.236.1-.482.153-.287.063-.588.063h-14q-.302 0-.59-.063-.245-.054-.481-.153-.236-.1-.446-.24-.23-.15-.428-.35-.199-.198-.35-.428-.14-.21-.239-.445-.1-.236-.154-.482-.063-.288-.063-.589V6.963a.725.725 0 01.001-.136q.007-.265.062-.52.054-.246.154-.482t.239-.445q.151-.23.35-.428.199-.2.428-.35.21-.14.446-.24.236-.1.482-.153.287-.063.588-.063h14q.302 0 .59.063zM4.022 8.297l7.834 5.223q.19.126.417.126.226 0 .415-.126l7.835-5.223v8.599q0 .15-.034.29-.024.1-.064.196-.043.101-.102.192-.071.11-.166.206-.096.095-.207.167-.09.058-.191.1-.096.042-.196.065-.141.034-.29.034h-14q-.15 0-.291-.034-.1-.023-.196-.064-.1-.043-.192-.101-.11-.072-.205-.167-.096-.095-.167-.206-.059-.09-.102-.192-.04-.095-.064-.196-.034-.14-.034-.29V8.297zM20.47 6.531q-.019-.062-.044-.121-.043-.101-.102-.192-.071-.11-.166-.206-.096-.095-.207-.167-.09-.058-.191-.1-.096-.041-.196-.065-.141-.034-.29-.034h-14q-.15 0-.291.034-.1.023-.196.064-.1.043-.192.101-.11.072-.205.167-.096.095-.167.206-.059.09-.102.192-.025.06-.044.12l8.197 5.465 8.195-5.464z" clip-rule="evenodd" fill="#141718" fill-rule="evenodd"/></svg>