<svg width="18" height="18" fill="none" xmlns="http://www.w3.org/2000/svg"><path d="M3.77 9.543l-.02.02A.557.557 0 013.187 9c0-.315.248-.563.563-.563l.02.02v1.086zm10.46-1.086l.02-.02c.315 0 .563.248.563.563a.557.557 0 01-.563.563l-.02-.02V8.457z" fill="#FFAB00"/><path d="M3.75 9h10.5" stroke="#FFAB00" stroke-width="1.125" stroke-linejoin="round" stroke-linecap="round"/><path d="M10.148 13.87v.028a.557.557 0 01-.796 0 .557.557 0 010-.796h.029l.767.768zm3.704-5.24v-.028a.557.557 0 01.796 0 .557.557 0 010 .796h-.029l-.767-.767z" fill="#FFAB00"/><path d="M9.75 13.5l4.5-4.5" stroke="#FFAB00" stroke-width="1.125" stroke-linejoin="round" stroke-linecap="round"/><path d="M9.38 4.898h-.028a.557.557 0 010-.796.557.557 0 01.796 0v.029l-.767.767zm5.24 3.704h.028a.557.557 0 010 .796.557.557 0 01-.796 0v-.029l.767-.767z" fill="#FFAB00"/><path d="M9.75 4.5l4.5 4.5" stroke="#FFAB00" stroke-width="1.125" stroke-linejoin="round" stroke-linecap="round"/></svg>