<svg width="20" height="20" fill="none" xmlns="http://www.w3.org/2000/svg"><defs><clipPath id="a"><path fill="#fff" fill-opacity="0" d="M0 0h20v20H0z"/></clipPath></defs><g clip-path="url(#a)"><path d="M10.577 5.764a.833.833 0 01-1.154 0l-.577-.553A3.75 3.75 0 002.5 7.917c0 1.985 1.075 3.625 2.626 4.972 1.553 1.348 3.41 2.242 4.52 2.699a.913.913 0 00.708 0c1.11-.457 2.967-1.35 4.52-2.7 1.551-1.346 2.626-2.986 2.626-4.971a3.75 3.75 0 00-6.346-2.706l-.577.553zM10 4.008A5.417 5.417 0 00.833 7.917c0 5.307 5.809 8.237 8.178 9.212a2.58 2.58 0 001.978 0c2.369-.975 8.177-3.906 8.177-9.212A5.417 5.417 0 0010 4.008z" fill="#6C7275" fill-rule="evenodd"/></g></svg>