<svg width="48" height="48" fill="none" xmlns="http://www.w3.org/2000/svg"><defs><clipPath id="a"><path fill="#fff" fill-opacity="0" d="M0 0h48v48H0z"/></clipPath></defs><g clip-path="url(#a)" stroke="#141718" stroke-width="2.5"><path d="M10.008 37.75A8.003 8.003 0 014 30V14a8 8 0 018-8h8a8 8 0 018 8v24m0-24h6.418a4 4 0 012.736 1.082l5.582 5.233A4 4 0 0144 23.233V34a4 4 0 01-4 4m-26 4a4 4 0 110-8 4 4 0 010 8zm22 0a4 4 0 110-8 4 4 0 010 8zm-18-4h14"/><path d="M20 16h-4m4 8h-8" stroke-linejoin="round" stroke-linecap="round"/></g></svg>