<svg width="24" height="24" fill="none" xmlns="http://www.w3.org/2000/svg"><path d="M0 0h24v24H0z"/><path d="M10 9a1 1 0 11-2 0 1 1 0 012 0zm6 6a1 1 0 11-2 0 1 1 0 012 0z" fill="#28303F" fill-rule="evenodd"/><path d="M2 17v-1c0-.552.46-.984.982-1.164a3.001 3.001 0 000-5.672C2.46 8.984 2 8.552 2 8V7a4 4 0 014-4h12a4 4 0 014 4v1c0 .552-.46.984-.982 1.164a3.001 3.001 0 000 5.672c.522.18.982.612.982 1.164v1a4 4 0 01-4 4H6a4 4 0 01-4-4zm7-7a1 1 0 110-2 1 1 0 010 2zm6 6a1 1 0 110-2 1 1 0 010 2zm0-7l-6 6" stroke="#FEFEFE" stroke-width="1.5" stroke-linecap="round"/></svg>