<svg width="24.000000" height="24.000000" viewBox="0 0 24 24" fill="none" xmlns="http://www.w3.org/2000/svg" xmlns:xlink="http://www.w3.org/1999/xlink">
	<desc>
			Created with Pixso.
	</desc>
	<defs>
		<clipPath id="clip42_3999">
			<rect width="24.000000" height="24.000000" fill="white" fill-opacity="0"/>
		</clipPath>
	</defs>
	<g clip-path="url(#clip42_3999)">
		<path d="M12.6924 6.91706C12.3054 7.28838 11.6946 7.28838 11.3076 6.91706L10.6152 6.2526C9.80469 5.47488 8.70996 5 7.5 5C5.01465 5 3 7.01472 3 9.5C3 11.8826 4.28979 13.8501 6.15186 15.4666C8.01538 17.0844 10.2434 18.1574 11.5747 18.7051C11.853 18.8196 12.147 18.8196 12.4253 18.7051C13.7566 18.1574 15.9846 17.0844 17.8481 15.4666C19.7102 13.8501 21 11.8826 21 9.5C21 7.01472 18.9854 5 16.5 5C15.29 5 14.1953 5.47487 13.3848 6.2526L12.6924 6.91706ZM12 4.80957C10.832 3.6888 9.24658 3 7.5 3C3.91016 3 1 5.91015 1 9.5C1 15.8683 7.97046 19.385 10.8137 20.5547C11.5796 20.8697 12.4204 20.8697 13.1863 20.5547C16.0295 19.385 23 15.8683 23 9.5C23 5.91015 20.0898 3 16.5 3C14.7534 3 13.168 3.6888 12 4.80957Z" fill="#141718" fill-opacity="1.000000" fill-rule="evenodd"/>
	</g>
</svg>
