<svg width="24.000000" height="24.000000" viewBox="0 0 24 24" fill="none" xmlns="http://www.w3.org/2000/svg" xmlns:xlink="http://www.w3.org/1999/xlink">
	<desc>
			Created with Pixso.
	</desc>
	<defs/>
	<rect width="24.000000" height="24.000000" fill="#FFFFFF" fill-opacity="0"/>
	<path d="M10 9C10 9.55228 9.55225 10 9 10C8.44775 10 8 9.55228 8 9C8 8.44772 8.44775 8 9 8C9.55225 8 10 8.44772 10 9Z" fill="#28303F" fill-opacity="1.000000" fill-rule="evenodd"/>
	<path d="M16 15C16 15.5523 15.5522 16 15 16C14.4478 16 14 15.5523 14 15C14 14.4477 14.4478 14 15 14C15.5522 14 16 14.4477 16 15Z" fill="#28303F" fill-opacity="1.000000" fill-rule="evenodd"/>
	<path d="M2 17L2 16C2 15.4477 2.45996 15.0163 2.98193 14.8356C4.15649 14.429 5 13.313 5 12C5 10.687 4.15649 9.57104 2.98193 9.16437C2.45996 8.98367 2 8.55228 2 8L2 7C2 4.79086 3.79077 3 6 3L18 3C20.2092 3 22 4.79086 22 7L22 8C22 8.55228 21.54 8.98367 21.0181 9.16437C19.8435 9.57104 19 10.687 19 12C19 13.313 19.8435 14.429 21.0181 14.8356C21.54 15.0163 22 15.4477 22 16L22 17C22 19.2091 20.2092 21 18 21L6 21C3.79077 21 2 19.2091 2 17ZM9 10C8.44775 10 8 9.55228 8 9C8 8.44772 8.44775 8 9 8C9.55225 8 10 8.44772 10 9C10 9.55228 9.55225 10 9 10ZM15 16C14.4478 16 14 15.5523 14 15C14 14.4477 14.4478 14 15 14C15.5522 14 16 14.4477 16 15C16 15.5523 15.5522 16 15 16ZM15 9L9 15" stroke="#FEFEFE" stroke-opacity="1.000000" stroke-width="1.500000" stroke-linecap="round"/>
</svg>
